<?xml version="1.0" encoding="UTF-8" standalone="no"?>
<svg
   width="1406.25"
   height="600"
   viewBox="0 0 1406.25 600"
   version="1.1"
   id="svg5"
   sodipodi:docname="cursos_que_valem.svg"
   inkscape:version="1.4 (e7c3feb1, 2024-10-09)"
   xmlns:inkscape="http://www.inkscape.org/namespaces/inkscape"
   xmlns:sodipodi="http://sodipodi.sourceforge.net/DTD/sodipodi-0.dtd"
   xmlns="http://www.w3.org/2000/svg"
   xmlns:svg="http://www.w3.org/2000/svg">
  <sodipodi:namedview
     id="namedview5"
     pagecolor="#ffffff"
     bordercolor="#000000"
     borderopacity="0.25"
     inkscape:showpageshadow="2"
     inkscape:pageopacity="0.0"
     inkscape:pagecheckerboard="0"
     inkscape:deskcolor="#d1d1d1"
     inkscape:zoom="1.2998923"
     inkscape:cx="254.63647"
     inkscape:cy="132.31865"
     inkscape:window-width="1736"
     inkscape:window-height="1067"
     inkscape:window-x="0"
     inkscape:window-y="25"
     inkscape:window-maximized="1"
     inkscape:current-layer="svg5" />
  <defs
     id="defs2">
    <linearGradient
       id="bg"
       x1="0"
       y1="256"
       x2="256"
       y2="0"
       gradientUnits="userSpaceOnUse">
      <stop
         offset="0%"
         stop-color="#8CB5E8"
         id="stop1" />
      <stop
         offset="100%"
         stop-color="#2E73C7"
         id="stop2" />
    </linearGradient>
    <linearGradient
       id="bg-6"
       x1="0"
       y1="256"
       x2="256"
       y2="0"
       gradientUnits="userSpaceOnUse"
       gradientTransform="translate(428.21682,224.55999)">
      <stop
         offset="0%"
         stop-color="#8CB5E8"
         id="stop1-0" />
      <stop
         offset="100%"
         stop-color="#2E73C7"
         id="stop2-0" />
    </linearGradient>
  </defs>
  <!-- Fundo -->
  <rect
     x="0"
     y="0"
     width="256"
     height="256"
     fill="url(#bg)"
     id="rect2"
     style="display:inline;fill:url(#bg)" />
  <!-- Livro aberto -->
  <g
     fill="#ffffff"
     id="g5"
     inkscape:export-filename="cursos-que-valem.png"
     inkscape:export-xdpi="96"
     inkscape:export-ydpi="96">
    <!-- Página esquerda -->
    <path
       d="m 76,70 q 30,-2 60,10 v 90 Q 106,158 76,160 Z"
       id="path2"
       inkscape:label="esquerdo" />
    <path
       id="path2-6-5"
       inkscape:label="esquerdo-detalhe"
       d="m 83.5,76.563308 c -2.5,0.0208 -5,0.11458 -7.5,0.28125 v 10.32617 c 20,-1.33333 40,2 60,10 v -10.32617 c -17.5,-7 -35,-10.42708 -52.5,-10.28125 z m 0,90.000002 c -2.5,0.0208 -5,0.11459 -7.5,0.28125 v 10.32617 c 20,-1.33333 40,2 60,10 v -10.32617 c -17.5,-7 -35,-10.42708 -52.5,-10.28125 z" />
    <!-- Página direita -->
    <path
       id="path3-2-4"
       style="display:inline"
       inkscape:label="direito-detalhe"
       d="m 196.5,76.289059 c -17.5,-0.14583 -35,3.28125 -52.5,10.281248 V 96.99999 c 20,-7.999996 40,-11.333331 60,-9.999996 V 76.570309 c -2.5,-0.16667 -5,-0.26042 -7.5,-0.28125 z m 0,90.000001 c -17.5,-0.14584 -35,3.28125 -52.5,10.28125 v 10.42968 c 20,-8 40,-11.33333 60,-10 v -10.42968 c -2.5,-0.16667 -5,-0.26042 -7.5,-0.28125 z"
       sodipodi:insensitive="true" />
    <path
       d="m 144,80 q 30,-12 60,-10 v 90 q -30,-2 -60,10 z"
       id="path3"
       inkscape:label="direito"
       style="display:inline" />
    <!-- Linha central -->
    <!-- Onda inferior -->
    <!-- Linha inferior extra -->
    <path
       d="m 77.013267,177.63182 q 26.943183,-6.21344 53.886363,0 7.18485,2.07114 14.3697,0 26.94318,-6.21344 53.88636,0"
       fill="none"
       stroke="#ffffff"
       stroke-width="3.85757"
       stroke-linecap="round"
       opacity="0.9"
       id="path5"
       inkscape:label="detalhe embaixo"
       style="display:none" />
  </g>
</svg>
