<!--Embedded SVG-->
<svg width="400" height="120" viewBox="0 0 400 120" xmlns="http://www.w3.org/2000/svg">
  <defs>
    <linearGradient id="bagGradient" x1="0%" y1="0%" x2="100%" y2="100%">
      <stop offset="0%" stop-color="#fb923c"/>
      <stop offset="100%" stop-color="#f97316"/>
    </linearGradient>
    <filter id="shadow" x="-50%" y="-50%" width="200%" height="200%">
      <feDropShadow dx="2" dy="4" stdDeviation="3" flood-color="#000000" flood-opacity="0.1"/>
    </filter>
  </defs>
  <g transform="translate(3, 20)">
    <rect x="0" y="2" width="64" height="64" rx="16" ry="16" fill="url(#bagGradient)" filter="url(#shadow)" transform="rotate(3 32 32)"/>
    <rect x="8" y="14" width="48" height="40" rx="8" ry="8" fill="white" transform="rotate(3 32 32)"/>
    <rect x="16" y="22" width="32" height="24" rx="2" ry="2" fill="none" stroke="#fb923c" stroke-width="2" transform="rotate(3 32 32)"/>
    <rect x="28" y="22" width="8" height="3" rx="2" ry="2" fill="#fb923c" transform="rotate(3 32 32)"/>
    <circle cx="30" cy="38" r="2" fill="#fb923c" transform="rotate(3 32 32)"/>
    <circle cx="38" cy="38" r="2" fill="#fb923c" transform="rotate(3 32 32)"/>
    <path d="M 28 42 Q 34 46 40 42" stroke="#fb923c" stroke-width="2" fill="none" stroke-linecap="round" transform="rotate(3 32 32)"/>
    <rect x="50" y="6" width="26" height="4" rx="1" fill="#fdba74" opacity="0.7"/>
    <rect x="54" y="14" width="18" height="4" rx="1" fill="#fdba74" opacity="0.5"/>
    <rect x="56" y="22" width="12" height="4" rx="1" fill="#fdba74" opacity="0.3"/>
  </g>
  <g transform="translate(80, 55)">
    <text x="0" y="0" font-size="32" font-weight="900" font-family="Arial, sans-serif" fill="#f97316">FAST</text>
    <text x="80" y="0" font-size="32" font-weight="700" font-family="Arial, sans-serif" fill="#2563eb">VISTOS</text>
  </g>
  <text x="190" y="80" font-size="12" font-weight="500" font-family="Arial, sans-serif" fill="#6b7280" text-anchor="middle" letter-spacing="0.5px">
Seu Visto Simplificado &amp; Rápido
    </text>
</svg>
