<?xml version="1.0" encoding="UTF-8" standalone="no"?>
<!-- Created with Inkscape (http://www.inkscape.org/) -->

<svg
   width="47.934536mm"
   height="43.80558mm"
   viewBox="0 0 47.934536 43.80558"
   version="1.1"
   id="svg1"
   xmlns="http://www.w3.org/2000/svg"
   xmlns:svg="http://www.w3.org/2000/svg">
  <defs
     id="defs1" />
  <g
     id="layer1"
     transform="translate(-97.895833,-168.275)">
    <path
       id="rect98785-1-4-0-9-9"
       style="fill:#ff8700;fill-opacity:1;stroke-width:0.183232"
       d="m 122.24009,168.275 a 11.474181,11.40464 0 0 0 -11.01587,8.21965 h -8.18245 a 5.1459965,5.1459965 0 0 0 -5.145937,5.14594 v 25.29406 a 5.1459965,5.1459965 0 0 0 5.145937,5.14593 h 37.57342 a 5.215537,5.215537 0 0 0 5.21518,-5.2157 v -25.50229 a 4.8678345,4.8678345 0 0 0 -4.86791,-4.86794 h -7.70702 A 11.474181,11.40464 0 0 0 122.24009,168.275 Z m 0,3.97134 a 7.4789947,7.4336674 0 0 1 6.72672,4.24831 h -13.45346 a 7.4789947,7.4336674 0 0 1 6.72674,-4.24831 z m -14.52986,18.71774 c 1.13298,0 2.04751,0.94623 2.43343,2.0061 1.36345,3.7443 6.20369,6.50507 11.9538,6.50967 5.83763,-0.003 10.74015,-2.84361 12.02097,-6.6735 0.32766,-0.97973 1.16496,-1.84227 2.20194,-1.84227 h 0.046 c 1.05616,0 1.92939,0.86392 1.74355,1.90222 -1.14785,6.41358 -8.00423,11.34189 -16.29048,11.34189 -8.03913,3e-5 -14.73237,-4.63854 -16.17265,-10.77192 -0.31422,-1.33808 0.76536,-2.47222 2.06345,-2.47219 z" />
  </g>
</svg>
