<?xml version="1.0" encoding="UTF-8" standalone="no"?>
<!-- Created with Inkscape (http://www.inkscape.org/) -->

<svg
   width="150"
   height="85"
   viewBox="0 0 39.687498 22.489581"
   version="1.1"
   id="svg1"
   xml:space="preserve"
   inkscape:version="1.4 (e7c3feb1, 2024-10-09)"
   sodipodi:docname="fastvistos-lettering.svg"
   inkscape:export-filename="/Users/edgar/Downloads/home-page-main-image.png"
   inkscape:export-xdpi="160"
   inkscape:export-ydpi="160"
   xmlns:inkscape="http://www.inkscape.org/namespaces/inkscape"
   xmlns:sodipodi="http://sodipodi.sourceforge.net/DTD/sodipodi-0.dtd"
   xmlns="http://www.w3.org/2000/svg"
   xmlns:svg="http://www.w3.org/2000/svg"><sodipodi:namedview
     id="namedview1"
     pagecolor="#2effff"
     bordercolor="#000000"
     borderopacity="0.25"
     inkscape:showpageshadow="2"
     inkscape:pageopacity="0.0"
     inkscape:pagecheckerboard="0"
     inkscape:deskcolor="#d1d1d1"
     inkscape:document-units="px"
     inkscape:zoom="1.7504511"
     inkscape:cx="3.7133285"
     inkscape:cy="34.276879"
     inkscape:window-width="1736"
     inkscape:window-height="1067"
     inkscape:window-x="0"
     inkscape:window-y="25"
     inkscape:window-maximized="1"
     inkscape:current-layer="layer1"
     showguides="false" /><defs
     id="defs1"><rect
       x="-79.153931"
       y="-47.351009"
       width="359.72635"
       height="173.85596"
       id="rect8" /><inkscape:path-effect
       effect="fillet_chamfer"
       id="path-effect106110-7-2"
       is_visible="true"
       lpeversion="1"
       satellites_param="F,0,0,1,0,8.673397,0,1 @ F,0,0,1,0,8.5419819,0,1 @ F,0,0,1,0,9.0676423,0,1 @ F,0,0,1,0,8.673397,0,1"
       unit="px"
       method="auto"
       mode="F"
       radius="0"
       chamfer_steps="1"
       flexible="false"
       use_knot_distance="true"
       apply_no_radius="true"
       apply_with_radius="true"
       only_selected="false"
       hide_knots="false"
       nodesatellites_param="F,0,0,1,0,8.673397,0,1 @ F,0,0,1,0,8.5419819,0,1 @ F,0,0,1,0,9.0676423,0,1 @ F,0,0,1,0,8.673397,0,1" /><inkscape:path-effect
       effect="fillet_chamfer"
       id="path-effect106114-3-7"
       is_visible="true"
       lpeversion="1"
       satellites_param="F,0,0,1,0,8.673397,0,1 @ F,0,0,1,0,8.5419819,0,1 @ F,0,0,1,0,9.0676423,0,1 @ F,0,0,1,0,8.673397,0,1"
       unit="px"
       method="auto"
       mode="F"
       radius="0"
       chamfer_steps="1"
       flexible="false"
       use_knot_distance="true"
       apply_no_radius="true"
       apply_with_radius="true"
       only_selected="false"
       hide_knots="false"
       nodesatellites_param="F,0,0,1,0,8.673397,0,1 @ F,0,0,1,0,8.5419819,0,1 @ F,0,0,1,0,9.0676423,0,1 @ F,0,0,1,0,8.673397,0,1" /><inkscape:path-effect
       effect="fillet_chamfer"
       id="path-effect106118-8-0"
       is_visible="true"
       lpeversion="1"
       satellites_param="F,0,0,1,0,8.673397,0,1 @ F,0,0,1,0,8.5419819,0,1 @ F,0,0,1,0,9.0676423,0,1 @ F,0,0,1,0,8.673397,0,1"
       unit="px"
       method="auto"
       mode="F"
       radius="0"
       chamfer_steps="1"
       flexible="false"
       use_knot_distance="true"
       apply_no_radius="true"
       apply_with_radius="true"
       only_selected="false"
       hide_knots="false"
       nodesatellites_param="F,0,0,1,0,8.673397,0,1 @ F,0,0,1,0,8.5419819,0,1 @ F,0,0,1,0,9.0676423,0,1 @ F,0,0,1,0,8.673397,0,1" /></defs><g
     inkscape:label="Layer 1"
     inkscape:groupmode="layer"
     id="layer1"><rect
       style="fill:#ffffff;fill-opacity:1;stroke:#ffffff;stroke-width:15.6004;stroke-opacity:0"
       id="rect7"
       width="40.992889"
       height="23.758833"
       x="-0.58099627"
       y="-0.81025583"
       inkscape:export-filename="/Users/edgar/Downloads/fastvistos-lettering.png"
       inkscape:export-xdpi="160"
       inkscape:export-ydpi="160" /><rect
       style="display:none;fill:#285b8c;stroke:#222222;stroke-width:36.3864;stroke-opacity:0"
       id="rect1"
       width="317.5"
       height="166.6875"
       x="5.699254e-06"
       y="-3.0149388e-06" /><path
       id="rect98785-1-4-0-5-9"
       style="fill:#ff8700;fill-opacity:0.736364;stroke-width:0.0382687"
       d="M 21.509294,0.97165799 A 2.3964398,2.3819156 0 0 0 19.208549,2.6883754 H 17.499578 A 1.0747668,1.0747669 0 0 0 16.424806,3.763125 v 5.2827878 a 1.0747668,1.0747669 0 0 0 1.074772,1.0747532 h 7.847453 A 1.0892908,1.0892908 0 0 0 26.436276,9.0313368 V 3.7050642 A 1.0166713,1.0166715 0 0 0 25.419564,2.6883754 H 23.80991 A 2.3964398,2.3819156 0 0 0 21.509294,0.97165799 Z m 0,0.82943561 a 1.562025,1.5525583 0 0 1 1.404908,0.8872818 H 20.104366 A 1.562025,1.5525583 0 0 1 21.509294,1.8010936 Z M 18.474646,5.710374 c 0.236606,0 0.427615,0.19764 0.508204,0.4189816 0.284775,0.7820207 1.295676,1.3586162 2.496658,1.3595795 1.219234,-3.427e-4 2.243138,-0.5939057 2.510654,-1.393796 0.06869,-0.2046168 0.243303,-0.3847651 0.459886,-0.3847651 h 0.0108 c 0.220579,0 0.40297,0.1804464 0.364154,0.3972909 -0.239716,1.3395131 -1.671732,2.3688113 -3.402345,2.3688113 -1.679055,0 -3.076963,-0.9687836 -3.377808,-2.2497672 -0.06545,-0.2794716 0.160056,-0.516335 0.430963,-0.516335 z"
       inkscape:export-filename="/Users/edgar/Downloads/fastvistos-lettering.png"
       inkscape:export-xdpi="106.2812"
       inkscape:export-ydpi="106.2812" /><text
       xml:space="preserve"
       style="font-weight:bold;font-size:2.11667px;line-height:1.85;font-family:Oswald;-inkscape-font-specification:'Oswald Bold';text-align:center;letter-spacing:0px;writing-mode:lr-tb;direction:ltr;text-anchor:middle;fill:#ff8700;fill-opacity:1;stroke:#ffffff;stroke-width:18.5208;stroke-opacity:0"
       x="19.462736"
       y="20.249184"
       id="text9-2"><tspan
         sodipodi:role="line"
         id="tspan9-7"
         style="font-style:normal;font-variant:normal;font-weight:bold;font-stretch:normal;font-size:2.11667px;font-family:'Roboto Condensed';-inkscape-font-specification:'Roboto Condensed,  Bold';fill:#ff8700;fill-opacity:1;stroke-width:18.5208"
         x="19.462736"
         y="20.249184">FACILITANDO VIAGENS</tspan></text><path
       id="rect99584-8-0-3-0-9"
       style="fill:#ff8700;fill-opacity:0.306818;stroke-width:0.0475889"
       d="m 14.541718,2.6883754 a 0.47202601,0.47202601 0 0 1 0.453708,0.4707768 0.48308348,0.48308348 0 0 1 -0.501099,0.4644173 h -1.384538 v 0.00136 H 12.803825 12.620009 A 0.46834235,0.46834235 0 0 0 12.14064,4.082112 0.47928793,0.47928793 0 0 0 12.620009,4.5613188 h 0.183816 0.995738 a 0.47202601,0.47202601 0 0 1 0.472047,0.4720879 0.48308348,0.48308348 0 0 1 -0.501099,0.464302 h -0.660722 -2.283703 a 0.46834235,0.46834235 0 0 0 -0.479326,0.4571834 0.47928793,0.47928793 0 0 0 0.479326,0.4792081 h 2.727302 a 0.47202601,0.47202601 0 0 1 0.418327,0.4612853 0.48308348,0.48308348 0 0 1 -0.447811,0.4580539 h -0.678996 v 0.00389 h -0.347522 a 0.46834235,0.46834235 0 0 0 -0.479304,0.4570704 0.47928793,0.47928793 0 0 0 0.479304,0.4793078 h 0.347522 2.198448 a 0.47202601,0.47202601 0 0 1 0.471982,0.4720756 0.48308348,0.48308348 0 0 1 -0.470686,0.4594616 h -3.013826 a 0.46834235,0.46834235 0 0 0 -0.479304,0.4570766 0.47928793,0.47928793 0 0 0 0.479304,0.4793066 h 0.567583 2.55515 0.280087 v -0.04088 h 2.065976 A 1.0747668,1.0747669 0 0 1 16.42487,9.0460278 V 3.7631466 a 1.0747668,1.0747669 0 0 1 1.074752,-1.0747604 z"
       inkscape:export-filename="C:\Users\edgar\Documents\GitHub\fastvistos\public\assets\images\logo-mobile.png"
       inkscape:export-xdpi="13.19"
       inkscape:export-ydpi="13.19" /><text
       xml:space="preserve"
       style="font-style:normal;font-variant:normal;font-weight:bold;font-stretch:normal;font-size:2.82222px;line-height:1.85;font-family:'Roboto Condensed';-inkscape-font-specification:'Roboto Condensed,  Bold';letter-spacing:1.59909px;fill:#0e2435;fill-opacity:1;stroke:none;stroke-width:0.629393"
       x="5.64534"
       y="12.945135"
       id="text12435-8-4-6-6-8-1-3-4-4-7-6-8-9-4-6-2-4-4-5-0-7-3-2"
       transform="scale(0.87845811,1.1383582)"
       inkscape:export-filename="C:\Users\edgar\Documents\GitHub\fastvistos\public\assets\images\logo-mobile.png"
       inkscape:export-xdpi="13.19"
       inkscape:export-ydpi="13.19"><tspan
         sodipodi:role="line"
         id="tspan12433-5-2-6-76-7-7-5-9-9-81-9-3-6-8-9-5-6-4-6-6-4-7-3"
         x="5.64534"
         y="12.945135"
         style="font-style:normal;font-variant:normal;font-weight:bold;font-stretch:normal;font-size:2.82222px;font-family:'Roboto Condensed';-inkscape-font-specification:'Roboto Condensed,  Bold';baseline-shift:baseline;fill:#0e2435;fill-opacity:1;stroke-width:0.629393">FAST</tspan></text><text
       xml:space="preserve"
       style="font-style:normal;font-variant:normal;font-weight:bold;font-stretch:normal;font-size:2.82222px;line-height:1.85;font-family:'Roboto Condensed';-inkscape-font-specification:'Roboto Condensed,  Bold';letter-spacing:1.59909px;fill:#0e2435;fill-opacity:1;stroke:none;stroke-width:0.629393"
       x="19.499578"
       y="12.952676"
       id="text12435-8-4-6-6-8-1-3-4-4-7-6-8-9-4-6-2-4-4-5-0-7-3-2-7-0"
       transform="scale(0.87845811,1.1383582)"
       inkscape:export-filename="C:\Users\edgar\Documents\GitHub\fastvistos\public\assets\images\logo-mobile.png"
       inkscape:export-xdpi="13.19"
       inkscape:export-ydpi="13.19"><tspan
         sodipodi:role="line"
         id="tspan12433-5-2-6-76-7-7-5-9-9-81-9-3-6-8-9-5-6-4-6-6-4-7-3-5-0"
         x="19.499578"
         y="12.952676"
         style="font-style:normal;font-variant:normal;font-weight:bold;font-stretch:normal;font-size:2.82222px;font-family:'Roboto Condensed';-inkscape-font-specification:'Roboto Condensed,  Bold';baseline-shift:baseline;fill:#0e2435;fill-opacity:1;stroke-width:0.629393">VISTOS</tspan></text><text
       xml:space="preserve"
       style="font-style:normal;font-variant:normal;font-weight:bold;font-stretch:normal;font-size:6.35px;line-height:1.85;font-family:'Roboto Condensed';-inkscape-font-specification:'Roboto Condensed,  Bold';letter-spacing:1.85208px;fill:#ffffff;fill-opacity:1;stroke:none;stroke-width:0.575577"
       x="116.83417"
       y="40.001945"
       id="text12435-8-4-6-6-8-1-3-4-4-7-6-8-9-4-6-2-4-4-5-0-7-3-2-7-0-7"
       transform="scale(0.87845811,1.1383582)"
       inkscape:export-filename="C:\Users\edgar\Documents\GitHub\fastvistos\public\assets\images\logo-mobile.png"
       inkscape:export-xdpi="13.19"
       inkscape:export-ydpi="13.19"><tspan
         sodipodi:role="line"
         x="116.83417"
         y="40.001945"
         style="font-style:normal;font-variant:normal;font-weight:bold;font-stretch:normal;font-size:6.35px;font-family:'Roboto Condensed';-inkscape-font-specification:'Roboto Condensed,  Bold';text-align:center;letter-spacing:1.85208px;writing-mode:lr-tb;direction:ltr;baseline-shift:baseline;text-anchor:middle;fill:#ffffff;fill-opacity:1;stroke-width:0.575577"
         id="tspan4" /></text><text
       xml:space="preserve"
       transform="scale(0.26458331)"
       id="text7"
       style="font-weight:bold;font-size:12px;line-height:1.85;font-family:Oswald;-inkscape-font-specification:'Oswald Bold';text-align:center;letter-spacing:0px;writing-mode:lr-tb;direction:ltr;white-space:pre;shape-inside:url(#rect8);fill:#ffffff;fill-opacity:1;stroke:#ffffff;stroke-width:70;stroke-opacity:0" /><text
       xml:space="preserve"
       style="font-weight:bold;font-size:3.175px;line-height:1.85;font-family:Oswald;-inkscape-font-specification:'Oswald Bold';text-align:center;letter-spacing:0px;writing-mode:lr-tb;direction:ltr;text-anchor:middle;fill:#ff8700;fill-opacity:1;stroke:#ffffff;stroke-width:18.5208;stroke-opacity:0"
       x="-62.127544"
       y="30.479265"
       id="text9"><tspan
         sodipodi:role="line"
         id="tspan9"
         style="fill:#ff8700;fill-opacity:1;stroke-width:18.5208"
         x="-62.127544"
         y="30.479265">conectando destinos.</tspan></text></g></svg>
