<svg xmlns="http://www.w3.org/2000/svg" viewBox="0 0 512 302.68"><path fill="#fff" d="M159.3 45.46c0-16.7-7.31-24.37-19.99-24.37-7.44 0-13.78 2.32-19.13 11.82-2.92-8.05-9.14-11.82-17.92-11.82-8.05 0-13.65 3.29-18.04 9.38l.24-6.58c.13-.74-.48-1.34-1.22-1.34H68.13c-.74 0-1.34.61-1.34 1.34l.25 38.88-.49 21.21c0 .73.61 1.34 1.34 1.34h16.33c.74 0 1.34-.61 1.34-1.34l-.49-21.21V54c0-12.8 5.98-19.51 11.1-19.51s8.16 3.66 8.16 11.22v17.06l-.49 21.21c0 .73.61 1.34 1.34 1.34h16.09c.73 0 1.34-.61 1.34-1.34l-.48-21.21V54c0-12.8 6.09-19.51 11.09-19.51s8.16 3.66 8.16 11.22v17.06l-.48 21.21c0 .73.61 1.34 1.34 1.34h16.09c.73 0 1.34-.61 1.34-1.34l-.37-21.21zM59.36 71.55H19.02l-.61-24.38h36.44c.74 0 1.34-.61 1.34-1.34v-11.1c0-.73-.61-1.34-1.34-1.34H18.41l.61-19.62h39.37c.74 0 1.34-.62 1.34-1.34V1.34C59.73.6 59.12 0 58.39 0H1.34C.61 0 0 .61 0 1.34l.74 41.32L0 83.98c0 .73.61 1.34 1.34 1.34h58.02c.73 0 1.34-.61 1.34-1.34v-11.1c0-.73-.61-1.34-1.34-1.34Zm352.47-47.66c0-.74-.61-1.34-1.34-1.34h-15.6c-.73 0-1.34.61-1.22 1.34l.24 5.49c-4.27-5-10.36-7.68-18.16-7.68-17.06 0-27.54 14.26-27.54 31.81s9.75 31.45 28.4 31.45c7.8 0 13.89-3.29 18.04-8.77v7.18c0 9.88-5.49 14.27-13.4 14.27-7.31 0-11.46-2.92-12.43-7.93-.13-.85-.74-1.34-1.59-1.34H352c-.74 0-1.34.61-1.23 1.34 1.1 13.66 13.41 20.23 29.87 20 20.72 0 31.2-10.24 31.08-26.09l-.24-28.76.36-30.96ZM380.5 73.01c-8.77.12-13.65-6.71-13.65-20.23 0-12.56 4.76-19.38 14.02-19.14 8.77.13 13.52 7.32 13.4 20.36-.12 12.68-4.88 19.02-13.78 19.02ZM202.92 21.33c-7.92 0-14.14 3.17-18.53 8.53l.24-5.97c.12-.74-.49-1.34-1.22-1.34h-15.85c-.74 0-1.34.61-1.34 1.34l.49 35.95-.49 44.85c0 .74.61 1.34 1.34 1.34h16.09c.73 0 1.34-.61 1.34-1.34l-.24-25.84c4.15 4.99 10.24 7.67 17.8 7.67 17.06 0 27.54-14.62 27.54-32.78s-9.38-32.42-27.18-32.42Zm-5.48 52.9c-8.77 0-13.53-7.44-13.4-20.72.12-13.04 4.88-19.74 13.77-19.74s13.66 7.07 13.66 20.96c0 12.8-4.76 19.51-14.02 19.51Zm114.32-53.27c-19.99 0-31.93 13.17-31.93 33.16s11.33 32.79 32.29 32.79c17.44 0 28.41-10 30.11-21.46.12-.73-.49-1.34-1.23-1.34h-14.87c-.74 0-1.46.49-1.59 1.34-1.7 6.58-6.09 9.27-12.19 9.27-8.77 0-13.4-5.25-14.14-17.07h44.62c.73 0 1.34-.61 1.34-1.34-.48-21.82-11.82-35.35-32.42-35.35Zm-13.04 25.11c1.46-8.65 5.85-13.04 13.17-13.04 8.04 0 11.82 6.34 12.55 13.04zm-18.77-22.18c0-.74-.61-1.46-1.34-1.59-.85-.12-1.71-.24-2.56-.24-9.14 0-17.55 3.66-22.42 11.1l.36-9.26c.13-.74-.49-1.34-1.22-1.34h-15.6c-.74 0-1.34.61-1.34 1.34l.49 29.98-.49 30.11c0 .73.61 1.34 1.34 1.34h15.72c.74 0 1.34-.61 1.34-1.34l-.12-26.57c0-14.38 9.5-21.58 22.42-21.58.61 0 1.46 0 2.07.12.74 0 1.34-.48 1.34-1.22V23.9Z"/><path fill="#f28b30" d="M132.89 102.61c-.69-1.4-2.09-2.33-3.49-2.33H86.83c-1.4 0-3.03.93-3.5 2.33l-54.9 158.2c-.47 1.16.22 2.33 1.62 2.33h31.18c1.4 0 2.79-.93 3.26-2.56l12.1-38.85h60.96l12.56 39.08c.46 1.4 1.86 2.33 3.25 2.33h31.41c1.4 0 2.09-1.16 1.62-2.33l-53.51-158.2ZM85.2 193.57l21.17-69.56 22.33 69.56H85.19Zm395.42-50.25h-30.71c-1.4 0-2.56 1.16-2.56 2.56l.93 57.46-.93 57.23c0 1.4 1.16 2.56 2.56 2.56h30.71c1.4 0 2.56-1.16 2.56-2.56l-.93-57.23.93-57.46c0-1.4-1.16-2.56-2.56-2.56M465.26 6.11c-35.92 0-58.37 38.89-40.41 70l32.13 55.66c3.68 6.37 12.88 6.37 16.56 0l32.14-55.66c17.96-31.11-4.49-70-40.42-70m0 73.7c-14.75 0-26.72-11.96-26.72-26.72s11.96-26.72 26.72-26.72 26.72 11.96 26.72 26.72-11.96 26.72-26.72 26.72m-35.09 63.51h-30.71c-1.4 0-2.56 1.16-2.56 2.56l.47 48.39v8.84c0 25.59-13.5 37.22-26.06 37.22-10.47 0-18.39-8.38-18.39-21.41v-24.66l.7-48.39c0-1.4-1.16-2.56-2.56-2.56h-30.25c-1.4 0-2.56 1.16-2.56 2.56l.7 48.39v25.13c0 29.31 16.29 46.53 41.64 46.53 16.76 0 30.48-7.44 38.62-17.92l-.47 12.56c-.22 1.4.94 2.56 2.34 2.56h28.62c1.39 0 2.55-1.16 2.55-2.56l-.46-59.78.93-54.91c0-1.4-1.16-2.56-2.56-2.56Zm-127.24 0h-30.24c-1.4 0-2.56 1.16-2.34 2.56l.47 10.24c-8.14-9.78-19.77-15.12-34.66-15.12-32.57 0-52.58 27.92-52.58 62.58s17.92 61.88 51.89 61.88c14.89 0 26.52-5.81 34.89-15.58l-.22 50.25c0 1.4 1.16 2.56 2.56 2.56h30.24c1.4 0 2.56-1.16 2.56-2.56l-.93-77.7.93-76.54c0-1.4-1.16-2.56-2.56-2.56Zm-57.7 98.87c-16.99 0-26.06-13.26-26.06-40.01s10-37.92 26.75-37.92 25.82 14.66 25.59 40.25c-.22 25.12-9.3 37.68-26.28 37.68"/></svg>