<?xml version="1.0" encoding="UTF-8" standalone="no"?>
<svg
   viewBox="0 0 512 512"
   version="1.1"
   id="svg2"
   sodipodi:docname="emprego-aqui-logo-footer.svg"
   inkscape:version="1.4 (e7c3feb1, 2024-10-09)"
   xmlns:inkscape="http://www.inkscape.org/namespaces/inkscape"
   xmlns:sodipodi="http://sodipodi.sourceforge.net/DTD/sodipodi-0.dtd"
   xmlns="http://www.w3.org/2000/svg"
   xmlns:svg="http://www.w3.org/2000/svg">
  <defs
     id="defs2" />
  <sodipodi:namedview
     id="namedview2"
     pagecolor="#ffffff"
     bordercolor="#000000"
     borderopacity="0.25"
     inkscape:showpageshadow="2"
     inkscape:pageopacity="0.0"
     inkscape:pagecheckerboard="0"
     inkscape:deskcolor="#d1d1d1"
     inkscape:zoom="0.86348534"
     inkscape:cx="327.74152"
     inkscape:cy="255.93949"
     inkscape:window-width="1736"
     inkscape:window-height="1067"
     inkscape:window-x="0"
     inkscape:window-y="25"
     inkscape:window-maximized="1"
     inkscape:current-layer="svg2" />
  <rect
     style="fill:#1e2237;fill-opacity:1;stroke:none;stroke-width:0;stroke-dasharray:none"
     id="rect2"
     width="701.80695"
     height="696.01642"
     x="-47.481987"
     y="-47.481987"
     ry="7.8579798"
     inkscape:label="bg" />
  <path
     fill="#fff"
     d="M105.95 199.64H74.34l-.48-19.1h28.55c.58 0 1.05-.48 1.05-1.05v-8.69c0-.57-.48-1.05-1.05-1.05H73.86l.48-15.37h30.84c.58 0 1.05-.48 1.05-1.05v-8.69c0-.58-.48-1.05-1.05-1.05H60.5c-.58 0-1.05.48-1.05 1.05l.58 32.37-.58 32.37c0 .57.48 1.05 1.05 1.05h45.45c.57 0 1.05-.48 1.05-1.05v-8.69c0-.57-.48-1.05-1.05-1.05M218.4 160.3c-6.2 0-11.08 2.48-14.51 6.68l.19-4.67c.09-.58-.38-1.05-.95-1.05h-12.41c-.58 0-1.05.48-1.05 1.05l.38 28.16-.38 35.13c0 .58.48 1.05 1.05 1.05h12.61c.57 0 1.05-.48 1.05-1.05l-.19-20.24c3.25 3.91 8.02 6.01 13.94 6.01 13.37 0 21.58-11.45 21.58-25.68s-7.35-25.4-21.29-25.4Zm-4.29 41.44c-6.87 0-10.6-5.83-10.5-16.23.09-10.22 3.82-15.47 10.78-15.47s10.7 5.53 10.7 16.42c0 10.03-3.73 15.28-10.98 15.28m-29.88-22.54c0-13.08-5.73-19.09-15.66-19.09-5.83 0-10.79 1.81-14.99 9.26-2.29-6.3-7.16-9.26-14.04-9.26-6.3 0-10.69 2.58-14.13 7.35l.19-5.15c.1-.58-.38-1.05-.95-1.05h-11.84c-.58 0-1.05.48-1.05 1.05l.19 30.45-.38 16.62c0 .57.48 1.05 1.05 1.05h12.79c.58 0 1.05-.48 1.05-1.05l-.38-16.62v-6.87c0-10.02 4.68-15.28 8.69-15.28s6.4 2.87 6.4 8.79v13.37l-.38 16.62c0 .57.48 1.05 1.05 1.05h12.61c.57 0 1.05-.48 1.05-1.05l-.38-16.62v-6.87c0-10.02 4.77-15.28 8.69-15.28s6.4 2.87 6.4 8.79v13.37l-.38 16.62c0 .57.48 1.05 1.05 1.05h12.61c.57 0 1.05-.48 1.05-1.05l-.29-16.62v-13.56Zm197.82-16.9c0-.58-.48-1.05-1.05-1.05h-12.22c-.57 0-1.05.48-.95 1.05l.19 4.3c-3.34-3.92-8.12-6.02-14.23-6.02-13.37 0-21.58 11.17-21.58 24.92s7.63 24.63 22.24 24.63c6.11 0 10.88-2.58 14.13-6.87v5.63c0 7.74-4.3 11.18-10.5 11.18-5.73 0-8.98-2.29-9.74-6.21-.1-.67-.58-1.05-1.24-1.05h-11.93c-.58 0-1.05.48-.96 1.05.86 10.7 10.51 15.85 23.4 15.66 16.23 0 24.44-8.02 24.34-20.44l-.19-22.53.28-24.25Zm-24.55 38.48c-6.87.09-10.69-5.26-10.69-15.85 0-9.84 3.73-15.18 10.98-14.99 6.87.1 10.59 5.73 10.5 15.95-.09 9.93-3.82 14.9-10.79 14.9Zm-53.84-40.77c-15.66 0-25.01 10.31-25.01 25.97s8.88 25.69 25.3 25.69c13.66 0 22.25-7.83 23.59-16.81.09-.57-.38-1.05-.96-1.05h-11.65c-.58 0-1.15.38-1.24 1.05-1.33 5.16-4.77 7.26-9.55 7.26-6.87 0-10.5-4.11-11.08-13.37h34.95c.57 0 1.05-.48 1.05-1.05-.38-17.09-9.26-27.69-25.4-27.69m-10.22 19.67c1.15-6.78 4.58-10.22 10.31-10.22 6.3 0 9.26 4.97 9.83 10.22h-20.15Zm-14.7-17.38c0-.58-.48-1.15-1.05-1.24-.67-.09-1.34-.19-2.01-.19-7.16 0-13.74 2.87-17.56 8.69l.28-7.26c.1-.58-.38-1.05-.95-1.05h-12.22c-.58 0-1.05.48-1.05 1.05l.38 23.48-.38 23.59c0 .57.48 1.05 1.05 1.05h12.31c.58 0 1.05-.48 1.05-1.05l-.09-20.81c0-11.27 7.44-16.9 17.56-16.9.48 0 1.15 0 1.62.09.58 0 1.05-.38 1.05-.95v-8.49Z"
     id="path1"
     inkscape:export-filename="logo-footer.png"
     inkscape:export-xdpi="47.874142"
     inkscape:export-ydpi="47.874142" />
  <path
     fill="#f28b30"
     d="M296.74 255.86h-23.69c-1.09 0-2.01.91-1.83 2.01l.37 8.02c-6.38-7.66-15.49-11.85-27.15-11.85-25.52 0-41.19 21.87-41.19 49.02s14.04 48.47 40.65 48.47c11.66 0 20.77-4.55 27.33-12.21l-.18 39.36c0 1.09.91 2.01 2.01 2.01h23.69c1.09 0 2.01-.91 2.01-2.01l-.73-60.87.73-59.96c0-1.09-.91-2.01-2.01-2.01Zm-45.19 77.45c-13.31 0-20.41-10.39-20.41-31.34s7.84-29.71 20.95-29.71 20.23 11.48 20.04 31.53c-.18 19.68-7.29 29.52-20.59 29.52Zm-88.01-109.35c-.54-1.09-1.64-1.82-2.73-1.82h-33.35c-1.09 0-2.37.73-2.74 1.82l-43 123.92c-.37.91.18 1.82 1.27 1.82h24.42c1.09 0 2.19-.73 2.56-2.01l9.47-30.43h47.75l9.84 30.61c.36 1.09 1.45 1.82 2.55 1.82h24.61c1.09 0 1.64-.91 1.27-1.82l-41.92-123.92Zm-37.36 71.26 16.58-54.49 17.5 54.49zm270.23-39.36h-24.05c-1.09 0-2.01.91-2.01 2.01l.37 37.91v6.93c0 20.04-10.58 29.16-20.41 29.16-8.2 0-14.4-6.57-14.4-16.77v-19.32l.55-37.91c0-1.09-.91-2.01-2.01-2.01h-23.69c-1.09 0-2.01.91-2.01 2.01l.55 37.91v19.68c0 22.96 12.76 36.45 32.62 36.45 13.13 0 23.88-5.83 30.25-14.04l-.37 9.84c-.18 1.09.73 2.01 1.83 2.01h22.42c1.09 0 2-.91 2-2.01l-.36-46.83.73-43.01c0-1.09-.91-2.01-2.01-2.01m27.49-107.49c-28.14 0-45.73 30.46-31.66 54.83l25.17 43.6c2.88 4.99 10.09 4.99 12.97 0l25.17-43.6c14.07-24.37-3.52-54.83-31.66-54.83Zm0 57.74c-11.56 0-20.93-9.37-20.93-20.93s9.37-20.93 20.93-20.93 20.93 9.37 20.93 20.93-9.37 20.93-20.93 20.93m12.03 49.75h-24.05c-1.09 0-2.01.91-2.01 2.01l.73 45.01-.73 44.83c0 1.09.91 2.01 2.01 2.01h24.05c1.09 0 2.01-.91 2.01-2.01l-.73-44.83.73-45.01c0-1.09-.91-2.01-2.01-2.01"
     id="path2" />
</svg>
